            <defs>
              <linearGradient id="sphereGradient" x1="25%" x2="25%" y1="0%" y2="75%">
                <stop stop-color="#373734" offset="0%"></stop>
                <stop stop-color="#242423" offset="50%"></stop>
                <stop stop-color="#0D0D0C" offset="100%"></stop>
              </linearGradient>
            </defs>
<svg class="sphere" viewBox="0 0 440 440">
            <path d="M361.604 361.238c-24.407 24.408-51.119 37.27-59.662 28.727-8.542-8.543 4.319-35.255 28.726-59.663 24.408-24.407 51.12-37.269 59.663-28.726 8.542 8.543-4.319 35.255-28.727 59.662z" stroke-dasharray="280.7113952636719" ></path>
            <path d="M360.72 360.354c-35.879 35.88-75.254 54.677-87.946 41.985-12.692-12.692 6.105-52.067 41.985-87.947 35.879-35.879 75.254-54.676 87.946-41.984 12.692 12.692-6.105 52.067-41.984 87.946z" stroke-dasharray="413.3923645019531"></path>
            <path d="M357.185 356.819c-44.91 44.91-94.376 68.258-110.485 52.149-16.11-16.11 7.238-65.575 52.149-110.485 44.91-44.91 94.376-68.259 110.485-52.15 16.11 16.11-7.239 65.576-52.149 110.486z" stroke-dasharray="518.689697265625" ></path>
            <path d="M350.998 350.632c-53.21 53.209-111.579 81.107-130.373 62.313-18.794-18.793 9.105-77.163 62.314-130.372 53.209-53.21 111.579-81.108 130.373-62.314 18.794 18.794-9.105 77.164-62.314 130.373z" stroke-dasharray="612.8993530273438"></path>
            <path d="M343.043 342.677c-59.8 59.799-125.292 91.26-146.283 70.268-20.99-20.99 10.47-86.483 70.269-146.282 59.799-59.8 125.292-91.26 146.283-70.269 20.99 20.99-10.47 86.484-70.27 146.283z" stroke-dasharray="688.08056640625" ></path>
            <path d="M334.646 334.28c-65.169 65.169-136.697 99.3-159.762 76.235-23.065-23.066 11.066-94.593 76.235-159.762s136.697-99.3 159.762-76.235c23.065 23.065-11.066 94.593-76.235 159.762z" stroke-dasharray="750.9237060546875" ></path>
            <path d="M324.923 324.557c-69.806 69.806-146.38 106.411-171.031 81.76-24.652-24.652 11.953-101.226 81.759-171.032 69.806-69.806 146.38-106.411 171.031-81.76 24.652 24.653-11.953 101.226-81.759 171.032z" stroke-dasharray="804.0537109375" ></path>
            <path d="M312.99 312.625c-73.222 73.223-153.555 111.609-179.428 85.736-25.872-25.872 12.514-106.205 85.737-179.428s153.556-111.609 179.429-85.737c25.872 25.873-12.514 106.205-85.737 179.429z" stroke-dasharray="843.49072265625" ></path>
            <path d="M300.175 299.808c-75.909 75.909-159.11 115.778-185.837 89.052-26.726-26.727 13.143-109.929 89.051-185.837 75.908-75.908 159.11-115.778 185.837-89.051 26.726 26.726-13.143 109.928-89.051 185.836z" stroke-dasharray="873.8916015625" ></path>
            <path d="M284.707 284.34c-77.617 77.617-162.303 118.773-189.152 91.924-26.848-26.848 14.308-111.534 91.924-189.15C265.096 109.496 349.782 68.34 376.63 95.188c26.849 26.849-14.307 111.535-91.923 189.151z" stroke-dasharray="890.8994140625" ></path>
            <path d="M269.239 267.989c-78.105 78.104-163.187 119.656-190.035 92.807-26.849-26.848 14.703-111.93 92.807-190.035 78.105-78.104 163.187-119.656 190.035-92.807 26.849 26.848-14.703 111.93-92.807 190.035z" stroke-dasharray="895.5676879882812" ></path>
            <path d="M252.887 252.52C175.27 330.138 90.584 371.294 63.736 344.446 36.887 317.596 78.043 232.91 155.66 155.293 233.276 77.677 317.962 36.521 344.81 63.37c26.85 26.848-14.307 111.534-91.923 189.15z" stroke-dasharray="890.8988037109375" ></path>
            <path d="M236.977 236.61C161.069 312.52 77.867 352.389 51.14 325.663c-26.726-26.727 13.143-109.928 89.052-185.837 75.908-75.908 159.11-115.777 185.836-89.05 26.727 26.726-13.143 109.928-89.051 185.836z" stroke-dasharray="873.893798828125" ></path>
            <path d="M221.067 220.7C147.844 293.925 67.51 332.31 41.639 306.439c-25.873-25.873 12.513-106.206 85.736-179.429C200.6 53.786 280.931 15.4 306.804 41.272c25.872 25.873-12.514 106.206-85.737 179.429z" stroke-dasharray="843.4929809570312" ></path>
            <path d="M205.157 204.79c-69.806 69.807-146.38 106.412-171.031 81.76-24.652-24.652 11.953-101.225 81.759-171.031 69.806-69.807 146.38-106.411 171.031-81.76 24.652 24.652-11.953 101.226-81.759 171.032z" stroke-dasharray="804.0543212890625" ></path>
            <path d="M189.247 188.881c-65.169 65.169-136.696 99.3-159.762 76.235-23.065-23.065 11.066-94.593 76.235-159.762s136.697-99.3 159.762-76.235c23.065 23.065-11.066 94.593-76.235 159.762z" stroke-dasharray="750.9235229492188" ></path>
            <path d="M173.337 172.971c-59.799 59.8-125.292 91.26-146.282 70.269-20.991-20.99 10.47-86.484 70.268-146.283 59.8-59.799 125.292-91.26 146.283-70.269 20.99 20.991-10.47 86.484-70.269 146.283z" stroke-dasharray="688.0787353515625" ></path>
            <path d="M157.427 157.061c-53.209 53.21-111.578 81.108-130.372 62.314-18.794-18.794 9.104-77.164 62.313-130.373 53.21-53.209 111.58-81.108 130.373-62.314 18.794 18.794-9.105 77.164-62.314 130.373z" stroke-dasharray="612.899169921875"></path>
            <path d="M141.517 141.151c-44.91 44.91-94.376 68.259-110.485 52.15-16.11-16.11 7.239-65.576 52.15-110.486 44.91-44.91 94.375-68.258 110.485-52.15 16.109 16.11-7.24 65.576-52.15 110.486z" stroke-dasharray="518.690673828125" ></path>
            <path d="M125.608 125.241c-35.88 35.88-75.255 54.677-87.947 41.985-12.692-12.692 6.105-52.067 41.985-87.947C115.525 43.4 154.9 24.603 167.592 37.295c12.692 12.692-6.105 52.067-41.984 87.946z" stroke-dasharray="413.3919372558594" ></path>
            <path d="M109.698 109.332c-24.408 24.407-51.12 37.268-59.663 28.726-8.542-8.543 4.319-35.255 28.727-59.662 24.407-24.408 51.12-37.27 59.662-28.727 8.543 8.543-4.319 35.255-28.726 59.663z" stroke-dasharray="280.7110900878906" ></path>
          </svg>

    
<svg width="454" height="454" viewBox="0 0 454 454" fill="none" xmlns="http://www.w3.org/2000/svg">
<rect width="210.602" height="210.602" transform="matrix(0.94966 0.313284 -0.94966 0.313284 227 295.044)" fill="black"/>
<rect width="210.602" height="210.602" transform="matrix(0.94966 0.313284 -0.94966 0.313284 227 284.322)" fill="black"/>
<rect width="210.602" height="210.602" transform="matrix(0.94966 0.313284 -0.94966 0.313284 227 273.6)" fill="black"/>
<rect width="210.602" height="210.602" transform="matrix(0.94966 0.313284 -0.94966 0.313284 227 262.878)" fill="black"/>
<rect width="210.602" height="210.602" transform="matrix(0.94966 0.313284 -0.94966 0.313284 227 252.157)" fill="black"/>
<rect width="210.602" height="210.602" transform="matrix(0.94966 0.313284 -0.94966 0.313284 227 241.435)" fill="black"/>
<rect width="210.602" height="210.602" transform="matrix(0.94966 0.313284 -0.94966 0.313284 227 230.713)" fill="black"/>
<rect width="210.602" height="210.602" transform="matrix(0.94966 0.313284 -0.94966 0.313284 227 219.992)" fill="black"/>
<rect width="210.602" height="210.602" transform="matrix(0.94966 0.313284 -0.94966 0.313284 227 209.27)" fill="black"/>
<rect width="210.602" height="210.602" transform="matrix(0.94966 0.313284 -0.94966 0.313284 227 198.548)" fill="black"/>
<rect width="210.602" height="210.602" transform="matrix(0.94966 0.313284 -0.94966 0.313284 227 187.826)" fill="black"/>
<rect width="210.602" height="210.602" transform="matrix(0.94966 0.313284 -0.94966 0.313284 227 177.104)" fill="black"/>
<rect width="210.602" height="210.602" transform="matrix(0.94966 0.313284 -0.94966 0.313284 227 166.383)" fill="black"/>
<rect width="210.602" height="210.602" transform="matrix(0.94966 0.313284 -0.94966 0.313284 227 155.661)" fill="black"/>
<rect width="210.602" height="210.602" transform="matrix(0.94966 0.313284 -0.94966 0.313284 227 144.939)" fill="black"/>
<rect width="210.602" height="210.602" transform="matrix(0.94966 0.313284 -0.94966 0.313284 227 134.218)" fill="black"/>
<rect width="210.602" height="210.602" transform="matrix(0.94966 0.313284 -0.94966 0.313284 227 123.496)" fill="black"/>
<rect width="210.602" height="210.602" transform="matrix(0.94966 0.313284 -0.94966 0.313284 227 112.774)" fill="black"/>
<rect width="210.602" height="210.602" transform="matrix(0.94966 0.313284 -0.94966 0.313284 227 102.052)" fill="black"/>
<rect width="210.602" height="210.602" transform="matrix(0.94966 0.313284 -0.94966 0.313284 227 91.3306)" fill="black"/>
<rect width="210.602" height="210.602" transform="matrix(0.94966 0.313284 -0.94966 0.313284 227 80.6089)" fill="black"/>
<rect width="210.602" height="210.602" transform="matrix(0.94966 0.313284 -0.94966 0.313284 227 69.8872)" fill="black"/>
<rect width="210.602" height="210.602" transform="matrix(0.94966 0.313284 -0.94966 0.313284 227 59.165)" fill="black"/>
<rect width="210.602" height="210.602" transform="matrix(0.94966 0.313284 -0.94966 0.313284 227 48.4434)" fill="black"/>
<rect width="210.602" height="210.602" transform="matrix(0.94966 0.313284 -0.94966 0.313284 227 37.7217)" fill="black"/>
<rect width="210.602" height="210.602" transform="matrix(0.94966 0.313284 -0.94966 0.313284 227 27)" fill="black"/>
</svg>
<svg width="454" height="454" viewBox="0 0 454 454" fill="none" xmlns="http://www.w3.org/2000/svg">
<rect width="210.602" height="210.602" transform="matrix(0.94966 0.313284 -0.94966 0.313284 227 219.992)" fill="black"/>
<rect width="210.602" height="210.602" transform="matrix(0.94966 0.313284 -0.94966 0.313284 227 209.27)" fill="black"/>
<rect width="210.602" height="210.602" transform="matrix(0.94966 0.313284 -0.94966 0.313284 227 198.548)" fill="black"/>
<rect width="210.602" height="210.602" transform="matrix(0.94966 0.313284 -0.94966 0.313284 227 187.826)" fill="black"/>
<rect width="210.602" height="210.602" transform="matrix(0.94966 0.313284 -0.94966 0.313284 227 177.104)" fill="black"/>
<rect width="210.602" height="210.602" transform="matrix(0.94966 0.313284 -0.94966 0.313284 227 166.383)" fill="black"/>
<rect width="210.602" height="210.602" transform="matrix(0.94966 0.313284 -0.94966 0.313284 227 155.661)" fill="black"/>
<rect width="210.602" height="210.602" transform="matrix(0.94966 0.313284 -0.94966 0.313284 227 144.939)" fill="black"/>
<rect width="210.602" height="210.602" transform="matrix(0.94966 0.313284 -0.94966 0.313284 227 134.218)" fill="black"/>
<rect width="210.602" height="210.602" transform="matrix(0.94966 0.313284 -0.94966 0.313284 227 123.496)" fill="black"/>
<rect width="210.602" height="210.602" transform="matrix(0.94966 0.313284 -0.94966 0.313284 227 112.774)" fill="black"/>
<rect width="210.602" height="210.602" transform="matrix(0.94966 0.313284 -0.94966 0.313284 227 102.052)" fill="black"/>
<rect width="210.602" height="210.602" transform="matrix(0.94966 0.313284 -0.94966 0.313284 227 91.3306)" fill="black"/>
<rect width="210.602" height="210.602" transform="matrix(0.94966 0.313284 -0.94966 0.313284 227 80.6089)" fill="black"/>
<rect width="210.602" height="210.602" transform="matrix(0.94966 0.313284 -0.94966 0.313284 227 69.8872)" fill="black"/>
<rect width="210.602" height="210.602" transform="matrix(0.94966 0.313284 -0.94966 0.313284 227 59.165)" fill="black"/>
<rect width="210.602" height="210.602" transform="matrix(0.94966 0.313284 -0.94966 0.313284 227 48.4434)" fill="black"/>
<rect width="210.602" height="210.602" transform="matrix(0.94966 0.313284 -0.94966 0.313284 227 37.7217)" fill="black"/>
<path d="M427 92.9781L227 27L27 92.9781L227 158.956L427 92.9781Z" fill="black"/>
<path d="M427 361.022L227 295.044L27 361.022L227 427L427 361.022Z" fill="black"/>
<path d="M427 350.3L227 284.322L27 350.3L227 416.278L427 350.3Z" fill="black"/>
<path d="M427 339.578L227 273.6L27 339.578L227 405.556L427 339.578Z" fill="black"/>
<path d="M427 328.856L227 262.878L27 328.856L227 394.835L427 328.856Z" fill="black"/>
<path d="M427 318.135L227 252.157L27 318.135L227 384.113L427 318.135Z" fill="black"/>
<path d="M427 307.413L227 241.435L27 307.413L227 373.391L427 307.413Z" fill="black"/>
<path d="M427 296.691L227 230.713L27 296.691L227 362.67L427 296.691Z" fill="black"/>
</svg>

<svg width="454" height="454" viewBox="0 0 454 454" fill="none" xmlns="http://www.w3.org/2000/svg">
<path d="M427 361.022L227 295.044L27 361.022L227 427L427 361.022Z" fill="black" strokeDasharray={50}/>
<path d="M427 350.3L227 284.322L27 350.3L227 416.278L427 350.3Z" fill="black" strokeDasharray={50}/>
<path d="M427 339.578L227 273.6L27 339.578L227 405.556L427 339.578Z" fill="black" strokeDasharray={50}/>
<path d="M427 328.856L227 262.878L27 328.856L227 394.835L427 328.856Z" fill="black" strokeDasharray={50}/>
<path d="M427 318.135L227 252.157L27 318.135L227 384.113L427 318.135Z" fill="black" strokeDasharray={50}/>
<path d="M427 307.413L227 241.435L27 307.413L227 373.391L427 307.413Z" fill="black" strokeDasharray={50}/>
<path d="M427 296.691L227 230.713L27 296.691L227 362.67L427 296.691Z" fill="black" strokeDasharray={50}/>
<path d="M427 285.97L227 219.992L27 285.97L227 351.948L427 285.97Z" fill="black" strokeDasharray={50}/>
<path d="M427 275.248L227 209.27L27 275.248L227 341.226L427 275.248Z" fill="black" strokeDasharray={50}/>
<path d="M427 264.526L227 198.548L27 264.526L227 330.504L427 264.526Z" fill="black" strokeDasharray={50}/>
<path d="M427 253.804L227 187.826L27 253.804L227 319.782L427 253.804Z" fill="black" strokeDasharray={50}/>
<path d="M427 243.083L227 177.104L27 243.083L227 309.061L427 243.083Z" fill="black" strokeDasharray={50}/>
<path d="M427 232.361L227 166.383L27 232.361L227 298.339L427 232.361Z" fill="black" strokeDasharray={50}/>
<path d="M427 221.639L227 155.661L27 221.639L227 287.617L427 221.639Z" fill="black" strokeDasharray={50}/>
<path d="M427 210.918L227 144.939L27 210.918L227 276.896L427 210.918Z" fill="black" strokeDasharray={50}/>
<path d="M427 200.196L227 134.218L27 200.196L227 266.174L427 200.196Z" fill="black" strokeDasharray={50}/>
<path d="M427 189.474L227 123.496L27 189.474L227 255.452L427 189.474Z" fill="black" strokeDasharray={50}/>
<path d="M427 178.752L227 112.774L27 178.752L227 244.73L427 178.752Z" fill="black" strokeDasharray={50}/>
<path d="M427 168.03L227 102.052L27 168.03L227 234.008L427 168.03Z" fill="black" strokeDasharray={50}/>
<path d="M427 157.309L227 91.3306L27 157.309L227 223.287L427 157.309Z" fill="black" strokeDasharray={50}/>
<path d="M427 146.587L227 80.6089L27 146.587L227 212.565L427 146.587Z" fill="black" strokeDasharray={50}/>
<path d="M427 135.865L227 69.8872L27 135.865L227 201.843L427 135.865Z" fill="black" strokeDasharray={50}/>
<path d="M427 125.143L227 59.165L27 125.143L227 191.121L427 125.143Z" fill="black" strokeDasharray={50}/>
<path d="M427 114.421L227 48.4434L27 114.421L227 180.4L427 114.421Z" fill="black" strokeDasharray={50}/>
<path d="M427 103.7L227 37.7217L27 103.7L227 169.678L427 103.7Z" fill="black" strokeDasharray={50}/>
<path d="M227 27L427 92.9781L227 158.956L27 92.9781L227 27Z" fill="black" strokeDasharray={50}/>
</svg>

<svg width="454" height="454" viewBox="0 0 454 454" fill="none" xmlns="http://www.w3.org/2000/svg">
<path d="M226.984 27.0052C226.994 27.0018 227.005 27.0018 227.016 27.0052L426.856 92.9525C426.902 92.9676 426.902 93.0324 426.856 93.0475L227.016 158.995C227.005 158.998 226.995 158.998 226.984 158.995L27.1439 93.0475C27.0981 93.0324 27.0981 92.9676 27.1439 92.9525L226.984 27.0052Z" stroke="white" stroke-width="3"/>
<path d="M227 427L27.0343 361.011C27.0138 361.005 27 360.985 27 360.964V93.0692C27 93.0351 27.0333 93.011 27.0657 93.0217L227 159M227 427V159M227 427L426.966 361.011C426.986 361.005 427 360.985 427 360.964V93.0692C427 93.0351 426.967 93.011 426.934 93.0217L227 159" stroke="white" stroke-width="3"/>
</svg>
<svg width="454" height="454" viewBox="0 0 454 454" fill="none" xmlns="http://www.w3.org/2000/svg">
<path d="M226.984 27.0052C226.994 27.0018 227.005 27.0018 227.016 27.0052L426.856 92.9525C426.902 92.9676 426.902 93.0324 426.856 93.0475L227.016 158.995C227.005 158.998 226.995 158.998 226.984 158.995L27.1439 93.0475C27.0981 93.0324 27.0981 92.9676 27.1439 92.9525L226.984 27.0052Z" fill="#B3B3B3" stroke="white" stroke-width="3"/>
<path d="M226.984 295.005C226.994 295.002 227.005 295.002 227.016 295.005L426.856 360.953C426.902 360.968 426.902 361.032 426.856 361.047L227.016 426.995C227.005 426.998 226.995 426.998 226.984 426.995L27.1439 361.047C27.0981 361.032 27.0981 360.968 27.1439 360.953L226.984 295.005Z" fill="#9B9B9B" stroke="white" stroke-width="3"/>
<path d="M27 360.964V93.0692C27 93.0351 27.0333 93.011 27.0657 93.0217L226.966 158.989C226.986 158.995 227 159.015 227 159.036V426.931C227 426.965 226.967 426.989 226.934 426.978L27.0343 361.011C27.0138 361.005 27 360.985 27 360.964Z" fill="#B3B3B3" stroke="white" stroke-width="3"/>
<path d="M227 159.036V426.931C227 426.965 227.033 426.989 227.066 426.978L426.966 361.011C426.986 361.005 427 360.985 427 360.964V93.0692C427 93.0351 426.967 93.011 426.934 93.0217L227.034 158.989C227.014 158.995 227 159.015 227 159.036Z" fill="#B3B3B3" stroke="white" stroke-width="3"/>
</svg>
